<svg width="582" height="582" viewBox="0 0 582 582" fill="none" xmlns="http://www.w3.org/2000/svg">
<path d="M165.639 26.0042C161.176 26.0042 157.557 29.4923 157.557 33.8565V460.622C157.557 465.003 161.181 468.474 165.639 468.474H503.99C508.453 468.474 512 464.986 512 460.622V158.748H379.094V26L165.639 26.0042ZM405.64 26.0042V132.232H511.994L405.64 26.0042ZM201.909 110.009H334.815V136.605H201.909V110.009ZM77.0099 114.53C72.5472 114.53 69 118.018 69 122.382V549.148C69 553.529 72.5515 557 77.0099 557H415.361C419.824 557 423.371 553.512 423.371 549.148V512.774H121.29C116.827 512.774 113.28 509.286 113.28 504.921V114.534L77.0099 114.53ZM201.909 167.57H334.815V194.166H201.909V167.57ZM201.909 225.13H467.72V251.726H201.909V225.13ZM201.909 282.615H467.72V309.211H201.909V282.615ZM201.909 340.175H467.72V366.772H201.909V340.175ZM201.909 397.66H467.72V424.256H201.909V397.66Z" fill="#2E78BF"/>
</svg>
