<svg width="582" height="582" viewBox="0 0 582 582" fill="none" xmlns="http://www.w3.org/2000/svg">
<path d="M454.559 112.744H390.834C387.442 96.457 378.558 81.833 365.668 71.3251C352.778 60.8111 336.666 55.0492 320.035 55H242.941C226.302 55.0329 210.181 60.7893 197.29 71.3027C184.395 81.8222 175.516 96.4513 172.136 112.744H127.451C108.953 112.673 91.13 119.697 77.6524 132.368C64.175 145.044 56.0648 162.401 55 180.871H84.578C85.5054 170.983 89.8789 161.736 96.9304 154.75C104.97 146.673 115.901 142.14 127.298 142.162H454.559C465.951 142.14 476.883 146.673 484.921 154.75C491.978 161.736 496.346 170.983 497.274 180.871H527.01C525.946 162.401 517.835 145.043 504.358 132.368C490.881 119.697 473.058 112.673 454.559 112.744ZM202.82 112.744H202.814C204.976 106.862 208.357 101.5 212.73 97.0062C220.802 88.9341 231.755 84.4014 243.175 84.4235H320.116H320.11C328.918 84.4015 337.517 87.1069 344.726 92.1608C351.932 97.2203 357.408 104.376 360.387 112.662L202.82 112.744Z" fill="#D26969"/>
<path d="M439.753 497.504H142.231V181.65H112.73V512.058C112.686 515.992 114.217 519.784 116.977 522.588C119.738 525.398 123.502 526.984 127.437 527.006H454.544C462.676 526.962 469.25 520.355 469.25 512.217V181.809H439.75L439.753 497.504Z" fill="#D26969"/>
<path d="M187.943 223.653H217.444V454.545H187.943V223.653Z" fill="#D26969"/>
<path d="M276.291 223.653H305.791V454.545H276.291V223.653Z" fill="#D26969"/>
<path d="M364.554 223.653H394.055V454.545H364.554V223.653Z" fill="#D26969"/>
</svg>
