<svg width="582" height="582" viewBox="0 0 582 582" fill="none" xmlns="http://www.w3.org/2000/svg">
<path d="M454.9 245.896H418.479V154.692C418.479 109.068 394.181 66.9166 354.741 44.105C315.299 21.2983 266.71 21.2983 227.266 44.105C187.827 66.9166 163.528 109.068 163.528 154.692V245.896H127.107C124.69 245.896 122.377 246.856 120.665 248.566C118.958 250.276 118 252.598 118 255.019V492.159V492.154C118.019 509.082 124.742 525.311 136.691 537.281C148.64 549.251 164.839 555.98 181.737 556H400.263C417.162 555.981 433.36 549.251 445.309 537.281C457.258 525.311 463.982 509.082 464 492.154V255.014C464 252.593 463.042 250.272 461.335 248.562C459.623 246.852 457.31 245.892 454.893 245.892L454.9 245.896ZM181.735 154.692C181.735 115.588 202.563 79.4547 236.371 59.9042C270.173 40.35 311.828 40.35 345.632 59.9042C379.438 79.4535 400.267 115.587 400.267 154.692V245.896H181.74L181.735 154.692ZM445.793 492.158L445.798 492.153C445.784 504.247 440.982 515.839 432.446 524.384C423.911 532.933 412.338 537.743 400.27 537.758H181.744C169.675 537.744 158.103 532.934 149.568 524.384C141.033 515.839 136.231 504.246 136.216 492.153V264.135H445.806L445.793 492.158ZM281.892 405.724V477.331C281.878 479.762 282.832 482.093 284.544 483.817C286.251 485.541 288.578 486.506 291 486.506C293.422 486.506 295.749 485.541 297.456 483.817C299.168 482.093 300.122 479.762 300.107 477.331V405.724C314.975 402.686 327.358 392.422 333.118 378.355C338.883 364.289 337.267 348.27 328.813 335.645C320.358 323.016 306.177 315.437 291 315.437C275.822 315.437 261.641 323.017 253.186 335.645C244.732 348.269 243.121 364.289 248.881 378.355C254.641 392.422 267.024 402.686 281.892 405.724H281.892ZM291 333.682C298.243 333.682 305.19 336.563 310.316 341.697C315.437 346.827 318.317 353.786 318.317 361.041C318.317 368.301 315.437 375.26 310.316 380.39C305.19 385.524 298.243 388.405 291 388.405C283.757 388.405 276.809 385.524 271.684 380.39C266.563 375.26 263.682 368.301 263.682 361.041C263.692 353.791 266.572 346.831 271.693 341.702C276.814 336.572 283.757 333.687 291 333.683L291 333.682Z" fill="#6F737E"/>
</svg>
