<svg width="582" height="582" viewBox="0 0 582 582" fill="none" xmlns="http://www.w3.org/2000/svg">
<path d="M454.902 245.896H181.738V154.691C181.738 115.588 202.565 79.4546 236.373 59.904C270.175 40.3499 311.831 40.3499 345.634 59.904C379.441 79.4533 400.269 115.587 400.269 154.691V188.895V188.891C400.298 193.911 404.365 197.961 409.372 197.961C414.384 197.961 418.451 193.911 418.479 188.891V154.692C418.479 109.068 394.181 66.9166 354.741 44.105C315.299 21.2983 266.71 21.2983 227.266 44.105C187.827 66.9166 163.528 109.068 163.528 154.692V245.896H127.107C124.69 245.896 122.377 246.856 120.665 248.566C118.958 250.276 118 252.598 118 255.019V492.159V492.154C118.019 509.082 124.742 525.311 136.691 537.281C148.64 549.251 164.839 555.98 181.737 556H400.263C417.162 555.981 433.36 549.251 445.309 537.281C457.258 525.311 463.982 509.082 464 492.154V255.014C464 252.593 463.042 250.272 461.335 248.562C459.623 246.852 457.31 245.892 454.893 245.892L454.902 245.896ZM445.795 492.158H445.8C445.785 504.252 440.984 515.844 432.448 524.388C423.913 532.938 412.34 537.748 400.272 537.763H181.745C169.677 537.748 158.104 532.939 149.569 524.388C141.034 515.843 136.232 504.251 136.217 492.158V264.14H445.795L445.795 492.158ZM281.894 405.729V477.336C281.88 479.767 282.833 482.098 284.545 483.822C286.252 485.546 288.579 486.511 291.001 486.511C293.424 486.511 295.751 485.546 297.458 483.822C299.169 482.098 300.123 479.767 300.109 477.336V405.729C314.977 402.691 327.359 392.427 333.12 378.36C338.88 364.294 337.268 348.275 328.814 335.65C320.36 323.021 306.179 315.441 291.001 315.441C275.823 315.441 261.642 323.021 253.188 335.65C244.734 348.273 243.117 364.294 248.882 378.36C254.642 392.427 267.025 402.691 281.893 405.729H281.894ZM291.001 333.687C298.244 333.687 305.192 336.567 310.317 341.702C315.438 346.832 318.319 353.791 318.319 361.046C318.319 368.306 315.438 375.265 310.317 380.395C305.191 385.529 298.244 388.409 291.001 388.409C283.758 388.409 276.811 385.529 271.685 380.395C266.564 375.265 263.684 368.306 263.684 361.046C263.693 353.795 266.574 346.836 271.695 341.707C276.816 336.577 283.758 333.692 291.001 333.687L291.001 333.687Z" fill="#A5ABBD"/>
</svg>
